<svg width="21px" height="21px" viewBox="0 0 21 21" version="1.1" xmlns="http://www.w3.org/2000/svg" xmlns:xlink="http://www.w3.org/1999/xlink"><g stroke="none" stroke-width="1" fill="none" fill-rule="evenodd"><ellipse stroke="#1D4ED8" fill="#1D4ED8" cx="15.0106812" cy="15.8257085" rx="4" ry="4.01185713"/><path d="M14.9658203,0 C17.7272441,-1.39544373e-15 19.9658203,2.23857625 19.9658203,5 L19.9665339,13.6357032 C19.1268297,11.7282577 17.2238184,10.396952 15.0106812,10.396952 C12.020341,10.396952 9.59619141,12.8274891 9.59619141,15.8257085 C9.59619141,18.0446772 10.9239984,19.9527028 12.8264312,20.7946195 L5,20.793904 C2.23857625,20.793904 -5.50001544e-16,18.5553278 0,15.793904 L0,5 C-1.2263553e-15,2.23857625 2.23857625,-3.80913106e-16 5,0 L14.9658203,0 Z" fill="#1D4ED8"/><g transform="translate(8.013489, 14.116176) scale(1, -1) translate(-8.013489, -14.116176) translate(1.759521, 11.770190)" fill="#333333" fill-rule="nonzero"><g><rect x="0" y="0" width="12.5079346" height="1.25329365" rx="0.625"/><rect x="0" y="3.43867854" width="8.5133667" height="1.25329365" rx="0.625"/></g></g><text fill-rule="nonzero" font-family="SFProText-HeavyItalic, SF Pro Text" font-size="7.5" font-style="italic" font-weight="600" fill="#333333"> <tspan x="2.57250977" y="8.98652897">A-Z</tspan> </text><ellipse stroke="#1D4ED8" cx="15.0106812" cy="15.8257085" rx="4" ry="4.01185713"/></g></svg>
